<svg width="130" height="42" viewBox="0 0 130 42" fill="none" xmlns="http://www.w3.org/2000/svg">
<path opacity="0.5" d="M40.0652 2.25671L30.2601 36.9917C30.2102 37.1494 30.0108 37.1967 29.8945 37.0863L23.3301 30.8583L28.2492 13.4514C28.2991 13.2937 28.1495 13.1518 27.9833 13.1991L9.63617 17.8662L3.10498 11.6697C2.98865 11.5593 3.03851 11.3701 3.20469 11.3228L39.7993 2.00444C39.9655 1.97291 40.115 2.11481 40.0652 2.25671Z" fill="#00B37E"/>
<path opacity="0.5" d="M23.3297 30.858L20.8037 39.8452C20.7538 40.0029 20.5544 40.0502 20.4381 39.9398L0.0634003 20.6251C-0.0529313 20.5147 -0.00307518 20.3255 0.163113 20.2782L9.63583 17.8658L23.3297 30.858Z" fill="#00B37E"/>
<path d="M28.2484 13.4511L23.3292 30.858L9.63533 17.8659L27.9825 13.1988C28.1487 13.1515 28.2982 13.2934 28.2484 13.4511Z" fill="#00B37E"/>
<path d="M64.2486 25.7022L68.5336 11.3104H72.7062L66.3723 29.5H63.6239L64.2486 25.7022ZM60.3008 11.3104L64.5734 25.7022L65.223 29.5H62.4496L56.1532 11.3104H60.3008ZM80.9015 26.4517V20.4302C80.9015 19.9971 80.8307 19.6265 80.6891 19.3183C80.5475 19.0019 80.3268 18.7562 80.027 18.5813C79.7355 18.4064 79.3566 18.3189 78.8902 18.3189C78.4904 18.3189 78.1448 18.3897 77.8533 18.5313C77.5618 18.6645 77.3369 18.8603 77.1786 19.1185C77.0204 19.3683 76.9413 19.664 76.9413 20.0054H73.3433C73.3433 19.4308 73.4766 18.8853 73.7431 18.3689C74.0096 17.8525 74.3969 17.3986 74.9049 17.0072C75.413 16.6074 76.0168 16.2951 76.7164 16.0702C77.4243 15.8453 78.2155 15.7329 79.09 15.7329C80.1394 15.7329 81.0722 15.9078 81.8884 16.2576C82.7046 16.6074 83.3459 17.1321 83.8123 17.8317C84.2871 18.5313 84.5244 19.4058 84.5244 20.4552V26.2394C84.5244 26.9806 84.5702 27.5886 84.6618 28.0633C84.7535 28.5297 84.8867 28.9378 85.0616 29.2876V29.5H81.4262C81.2513 29.1335 81.118 28.6755 81.0264 28.1258C80.9431 27.5678 80.9015 27.0098 80.9015 26.4517ZM81.3762 21.2672L81.4012 23.3036H79.3899C78.9151 23.3036 78.5029 23.3577 78.1531 23.466C77.8033 23.5742 77.5159 23.7283 77.2911 23.9282C77.0662 24.1198 76.8996 24.3446 76.7914 24.6028C76.6914 24.861 76.6414 25.1442 76.6414 25.4523C76.6414 25.7605 76.7122 26.0395 76.8538 26.2893C76.9954 26.5309 77.1995 26.7224 77.466 26.864C77.7325 26.9973 78.0448 27.0639 78.4029 27.0639C78.9443 27.0639 79.4149 26.9556 79.8146 26.7391C80.2144 26.5225 80.5226 26.256 80.7391 25.9395C80.964 25.6231 81.0806 25.3232 81.0889 25.0401L82.0384 26.5642C81.9051 26.9057 81.7219 27.2596 81.4887 27.6261C81.2638 27.9925 80.9765 28.3382 80.6267 28.663C80.2769 28.9795 79.8563 29.2418 79.3649 29.45C78.8735 29.6499 78.2905 29.7499 77.6159 29.7499C76.758 29.7499 75.9793 29.5791 75.2797 29.2377C74.5885 28.8879 74.0388 28.409 73.6307 27.801C73.2309 27.1847 73.031 26.4851 73.031 25.7022C73.031 24.9943 73.1643 24.3654 73.4308 23.8158C73.6973 23.2661 74.0887 22.8038 74.6051 22.4291C75.1298 22.0459 75.7836 21.7586 76.5665 21.5671C77.3494 21.3672 78.2572 21.2672 79.2899 21.2672H81.3762ZM94.6061 25.7646C94.6061 25.5065 94.5312 25.2733 94.3813 25.065C94.2314 24.8568 93.9524 24.6653 93.5443 24.4904C93.1445 24.3071 92.5656 24.1406 91.8077 23.9907C91.1248 23.8407 90.4877 23.6534 89.8963 23.4285C89.3133 23.1953 88.8053 22.9163 88.3722 22.5915C87.9475 22.2666 87.6143 21.8835 87.3728 21.4421C87.1313 20.9924 87.0105 20.4802 87.0105 19.9055C87.0105 19.3392 87.1313 18.8061 87.3728 18.3064C87.6226 17.8067 87.9766 17.3653 88.4347 16.9822C88.9011 16.5907 89.4674 16.2867 90.1337 16.0702C90.8083 15.8453 91.5662 15.7329 92.4074 15.7329C93.5817 15.7329 94.5895 15.9203 95.4307 16.2951C96.2802 16.6699 96.9298 17.1862 97.3796 17.8442C97.8376 18.4938 98.0667 19.2351 98.0667 20.0679H94.4687C94.4687 19.7181 94.3938 19.4058 94.2439 19.1309C94.1023 18.8478 93.8774 18.6271 93.5692 18.4688C93.2694 18.3023 92.878 18.219 92.3949 18.219C91.9951 18.219 91.6495 18.2898 91.358 18.4313C91.0665 18.5646 90.8416 18.7478 90.6834 18.981C90.5335 19.2059 90.4585 19.4558 90.4585 19.7306C90.4585 19.9388 90.5002 20.1262 90.5835 20.2928C90.6751 20.451 90.8208 20.5968 91.0207 20.73C91.2206 20.8633 91.4788 20.9882 91.7953 21.1048C92.1201 21.2131 92.5198 21.313 92.9946 21.4046C93.969 21.6045 94.8393 21.8669 95.6056 22.1917C96.3718 22.5082 96.9798 22.9413 97.4295 23.4909C97.8793 24.0323 98.1041 24.7444 98.1041 25.6272C98.1041 26.2269 97.9709 26.7766 97.7044 27.2763C97.4379 27.776 97.0547 28.2132 96.555 28.588C96.0553 28.9545 95.4557 29.2418 94.7561 29.45C94.0648 29.6499 93.2861 29.7499 92.4199 29.7499C91.1623 29.7499 90.0962 29.525 89.2217 29.0752C88.3556 28.6255 87.6976 28.055 87.2479 27.3637C86.8065 26.6641 86.5857 25.9479 86.5857 25.215H89.9963C90.0129 25.7063 90.1379 26.1019 90.3711 26.4018C90.6126 26.7016 90.9166 26.9181 91.283 27.0514C91.6578 27.1847 92.0618 27.2513 92.4949 27.2513C92.9613 27.2513 93.3485 27.1888 93.6567 27.0639C93.9648 26.9306 94.198 26.7557 94.3563 26.5392C94.5229 26.3143 94.6061 26.0561 94.6061 25.7646ZM103.951 10.311V29.5H100.353V10.311H103.951ZM103.439 22.2666H102.452C102.46 21.3255 102.585 20.4594 102.826 19.6681C103.068 18.8686 103.414 18.1773 103.863 17.5943C104.313 17.003 104.85 16.5449 105.475 16.2201C106.108 15.8953 106.807 15.7329 107.574 15.7329C108.24 15.7329 108.844 15.8287 109.385 16.0202C109.935 16.2035 110.405 16.5033 110.797 16.9197C111.197 17.3278 111.505 17.865 111.721 18.5313C111.938 19.1976 112.046 20.0054 112.046 20.9549V29.5H108.423V20.9299C108.423 20.3303 108.336 19.8597 108.161 19.5182C107.994 19.1684 107.749 18.9227 107.424 18.7811C107.107 18.6312 106.716 18.5563 106.249 18.5563C105.733 18.5563 105.292 18.6521 104.925 18.8436C104.567 19.0352 104.28 19.3017 104.063 19.6432C103.847 19.9763 103.688 20.3677 103.588 20.8175C103.489 21.2672 103.439 21.7503 103.439 22.2666ZM118.58 15.9828V29.5H114.969V15.9828H118.58ZM114.745 12.4598C114.745 11.9351 114.928 11.502 115.294 11.1605C115.661 10.819 116.152 10.6483 116.768 10.6483C117.376 10.6483 117.864 10.819 118.23 11.1605C118.605 11.502 118.792 11.9351 118.792 12.4598C118.792 12.9845 118.605 13.4176 118.23 13.759C117.864 14.1005 117.376 14.2712 116.768 14.2712C116.152 14.2712 115.661 14.1005 115.294 13.759C114.928 13.4176 114.745 12.9845 114.745 12.4598ZM128.174 15.9828V18.5313H120.304V15.9828H128.174ZM122.253 12.6472H125.851V25.4273C125.851 25.8188 125.901 26.1186 126.001 26.3268C126.109 26.535 126.267 26.6808 126.475 26.7641C126.684 26.839 126.946 26.8765 127.262 26.8765C127.487 26.8765 127.687 26.8682 127.862 26.8515C128.045 26.8265 128.199 26.8015 128.324 26.7766L128.337 29.425C128.029 29.525 127.695 29.6041 127.337 29.6624C126.979 29.7207 126.584 29.7499 126.151 29.7499C125.359 29.7499 124.668 29.6208 124.077 29.3626C123.494 29.0961 123.044 28.6713 122.728 28.0883C122.411 27.5053 122.253 26.7391 122.253 25.7896V12.6472Z" fill="#E1E1E6"/>
</svg>
